<svg id="Layer_1" data-name="Layer 1" xmlns="http://www.w3.org/2000/svg" viewBox="0 0 17.23 15.82"><defs><style>.cls-1{fill:none;}.cls-2{fill:#ffb400;stroke:#ffb400;stroke-linecap:round;stroke-linejoin:round;stroke-width:0.11px;}</style></defs><title>favorites-fill</title><g id="Сгруппировать_19" data-name="Сгруппировать 19"><path id="Контур_17" data-name="Контур 17" class="cls-1" d="M15.33,1.46a.29.29,0,0,0-.38.05.22.22,0,0,0,0,.31h0C14.94,1.6,15.13,1.55,15.33,1.46Z" transform="translate(0 0)"/><path id="Контур_18" data-name="Контур 18" class="cls-1" d="M15.18,2.15l-.1.05a.31.31,0,0,0,.42-.12.42.42,0,0,0,0-.1.56.56,0,0,0,0-.12s-.08,0-.09.09A.21.21,0,0,1,15.18,2.15Z" transform="translate(0 0)"/><path id="Контур_19" data-name="Контур 19" class="cls-1" d="M2.93,1.56a.08.08,0,0,0,0-.07.09.09,0,0,0-.06-.07.73.73,0,0,0-.28.1.24.24,0,0,0,0,.33C2.71,1.65,2.71,1.65,2.93,1.56Z" transform="translate(0 0)"/><path id="Контур_20" data-name="Контур 20" class="cls-1" d="M11.45,1.2a3.42,3.42,0,0,0-1.64.66q-.54.45-1.05,1c-.09.09-.16.12-.26,0S8.14,2.45,8,2.27A4,4,0,0,0,4.51,1.19,3.74,3.74,0,0,0,3.1,1.7,3.88,3.88,0,0,0,1.16,5.06,3.74,3.74,0,0,0,2.28,7.92c2.05,2.09,4.13,4.15,6.2,6.22.1.1.17.12.28,0L14.91,8A3.86,3.86,0,0,0,16.09,5.1,3.82,3.82,0,0,0,15,2.4,3.86,3.86,0,0,0,11.45,1.2Z" transform="translate(0 0)"/><path id="Контур_21" data-name="Контур 21" class="cls-2" d="M16.75,3.09a5.06,5.06,0,0,0-4.26-3A4.85,4.85,0,0,0,10.26.4a5,5,0,0,0-1.51.91c-.08.07-.14.1-.24,0A5.09,5.09,0,0,0,.08,4.72,4.7,4.7,0,0,0,.24,6.47,5.08,5.08,0,0,0,1.55,8.75l3.79,3.79,3.13,3.13c.11.12.18.14.3,0s.46-.47.69-.7q3.06-3.08,6.14-6.13a5.1,5.1,0,0,0,1.58-3.43A5.48,5.48,0,0,0,16.75,3.09ZM15.5,1.86a.56.56,0,0,1,0,.12.32.32,0,0,1-.36.26l-.11,0,.1-.05a.22.22,0,0,0,.24-.2S15.47,1.89,15.5,1.86ZM15,1.51a.29.29,0,0,1,.38-.05c-.2.09-.39.14-.4.37a.22.22,0,0,1,0-.31h0Zm-12.31,0a.94.94,0,0,1,.28-.1s.06.05.06.07a.09.09,0,0,1-.06.08c-.21.08-.21.08-.3.29a.26.26,0,0,1,0-.34Z" transform="translate(0 0)"/></g></svg>