<svg width="129" height="41" viewBox="0 0 129 41" fill="none" xmlns="http://www.w3.org/2000/svg">
<path d="M39.27 0.929993H1.2V39H39.27V0.929993Z" stroke="black" stroke-width="1.4152" stroke-miterlimit="10"/>
<path d="M64.14 16.06L71.05 0.539997C71.16 0.319997 71.34 0.199997 71.58 0.199997H71.96C72.22 0.199997 72.38 0.309997 72.47 0.539997L79.4 16.06C79.45 16.17 79.45 16.26 79.4 16.34C79.35 16.41 79.26 16.45 79.14 16.45H78.49C78.2 16.45 78 16.32 77.89 16.07L76.28 12.44H67.28L65.67 16.07C65.56 16.33 65.36 16.45 65.07 16.45H64.4C64.11 16.44 64.03 16.31 64.14 16.06ZM71.77 2.34L67.87 11.07H75.67L71.77 2.34Z" fill="black"/>
<path d="M112.88 16.06L119.79 0.539997C119.9 0.319997 120.08 0.199997 120.32 0.199997H120.7C120.96 0.199997 121.12 0.309997 121.21 0.539997L128.14 16.06C128.19 16.17 128.19 16.26 128.14 16.34C128.09 16.41 128 16.45 127.88 16.45H127.23C126.94 16.45 126.74 16.32 126.63 16.07L125 12.42H116L114.39 16.05C114.28 16.31 114.08 16.43 113.79 16.43H113.12C112.84 16.44 112.76 16.31 112.88 16.06ZM120.5 2.34L116.6 11.07H124.4L120.5 2.34Z" fill="black"/>
<path d="M83.93 16.44C83.82 16.44 83.72 16.4 83.63 16.32C83.54 16.24 83.5 16.14 83.5 16.01V0.629995C83.5 0.519995 83.54 0.419996 83.63 0.329996C83.72 0.239996 83.82 0.199997 83.93 0.199997H90.52C91.96 0.199997 93.17 0.669995 94.13 1.59999C95.09 2.52999 95.57 3.69 95.57 5.06C95.57 6.46 95.09 7.62 94.13 8.55C93.17 9.48 91.96 9.95 90.52 9.95H84.96V16.01C84.96 16.14 84.92 16.24 84.84 16.32C84.76 16.4 84.66 16.44 84.53 16.44H83.93ZM90.52 1.55H84.96V8.58H90.52C91.53 8.58 92.38 8.25 93.06 7.58C93.74 6.91 94.08 6.08 94.08 5.07C94.08 4.08 93.74 3.24 93.06 2.57C92.37 1.88 91.53 1.55 90.52 1.55Z" fill="black"/>
<path d="M48.77 16.44C48.66 16.44 48.56 16.4 48.47 16.32C48.38 16.24 48.34 16.14 48.34 16.01V0.629995C48.34 0.519995 48.38 0.419996 48.47 0.329996C48.56 0.239996 48.66 0.199997 48.77 0.199997H49.37C49.5 0.199997 49.6 0.239996 49.68 0.329996C49.76 0.419996 49.8 0.519995 49.8 0.629995V16C49.8 16.13 49.76 16.23 49.68 16.31C49.6 16.39 49.5 16.43 49.37 16.43H48.77V16.44ZM58.29 16.13L50.66 8.16999L57.83 0.519997C58.04 0.309997 58.27 0.209995 58.53 0.209995H59.56C59.83 0.209995 59.88 0.309997 59.7 0.519997L52.51 8.16999L60.16 16.13C60.24 16.21 60.27 16.28 60.24 16.35C60.22 16.41 60.14 16.45 60.01 16.45H58.97C58.73 16.44 58.5 16.34 58.29 16.13Z" fill="black"/>
<path d="M98.89 0.629995C98.89 0.519995 98.93 0.419996 99.02 0.329996C99.11 0.239996 99.21 0.199997 99.32 0.199997H112.94C113.23 0.199997 113.37 0.339995 113.37 0.629995V1.14C113.37 1.41 113.23 1.55 112.94 1.55H106.85V16.01C106.85 16.14 106.81 16.24 106.73 16.32C106.65 16.4 106.55 16.44 106.42 16.44H105.84C105.71 16.44 105.61 16.4 105.53 16.32C105.45 16.24 105.41 16.14 105.41 16.01V1.55H99.32C99.03 1.55 98.89 1.41 98.89 1.14V0.629995Z" fill="black"/>
<path d="M62.68 36.38C61.94 37.52 60.96 38.41 59.74 39.06C58.52 39.71 57.17 40.03 55.7 40.03C53.33 40.03 51.35 39.24 49.77 37.65C48.19 36.06 47.4 34.07 47.4 31.68C47.4 29.31 48.19 27.33 49.77 25.75C51.35 24.17 53.33 23.38 55.7 23.38C57.18 23.38 58.52 23.7 59.74 24.34C60.96 24.98 61.94 25.87 62.68 27.01C62.82 27.25 62.76 27.43 62.49 27.54L61.89 27.76C61.83 27.79 61.77 27.81 61.72 27.81C61.54 27.81 61.39 27.73 61.26 27.57C60.63 26.69 59.84 26 58.88 25.51C57.92 25.02 56.86 24.78 55.7 24.78C53.76 24.78 52.14 25.44 50.83 26.75C49.52 28.07 48.87 29.71 48.87 31.68C48.87 33.67 49.52 35.33 50.83 36.65C52.14 37.97 53.76 38.64 55.7 38.64C56.86 38.64 57.91 38.39 58.88 37.89C59.84 37.39 60.64 36.7 61.26 35.82C61.39 35.66 61.54 35.58 61.72 35.58C61.77 35.58 61.82 35.6 61.89 35.63L62.49 35.85C62.76 35.96 62.83 36.14 62.68 36.38Z" fill="black"/>
<path d="M67.33 39.82C67.22 39.82 67.12 39.78 67.03 39.7C66.94 39.62 66.9 39.52 66.9 39.39V24.01C66.9 23.9 66.94 23.8 67.03 23.71C67.12 23.62 67.22 23.58 67.33 23.58H74.5C75.77 23.58 76.82 23.97 77.65 24.76C78.48 25.55 78.9 26.52 78.9 27.7C78.9 28.44 78.72 29.12 78.36 29.73C78 30.35 77.51 30.84 76.88 31.21C77.75 31.55 78.44 32.08 78.96 32.81C79.48 33.54 79.74 34.38 79.74 35.32C79.74 36.6 79.28 37.67 78.37 38.53C77.46 39.39 76.32 39.82 74.95 39.82H67.33ZM74.5 24.93H68.36V30.66H74.5C75.33 30.66 76.03 30.39 76.58 29.84C77.13 29.29 77.41 28.61 77.41 27.79C77.41 26.99 77.13 26.31 76.58 25.76C76.02 25.2 75.33 24.93 74.5 24.93ZM74.95 32H68.36V38.47H74.95C75.88 38.47 76.66 38.16 77.3 37.54C77.93 36.92 78.25 36.16 78.25 35.24C78.25 34.31 77.94 33.54 77.31 32.92C76.68 32.31 75.9 32 74.95 32Z" fill="black"/>
<path d="M83.66 24.01C83.66 23.9 83.7 23.8 83.79 23.71C83.88 23.62 83.98 23.58 84.09 23.58H94.75C95.04 23.58 95.18 23.72 95.18 24.01V24.52C95.18 24.79 95.04 24.93 94.75 24.93H85.13V30.92H93.62C93.91 30.92 94.05 31.06 94.05 31.35V31.86C94.05 32.13 93.91 32.27 93.62 32.27H85.13V38.48H94.87C95.16 38.48 95.3 38.62 95.3 38.91V39.39C95.3 39.68 95.16 39.82 94.87 39.82H84.1C83.99 39.82 83.89 39.78 83.8 39.7C83.71 39.62 83.67 39.52 83.67 39.39V24.01H83.66Z" fill="black"/>
<path d="M98.94 24.01C98.94 23.9 98.98 23.8 99.07 23.71C99.16 23.62 99.26 23.58 99.37 23.58H112.99C113.28 23.58 113.42 23.72 113.42 24.01V24.52C113.42 24.79 113.28 24.93 112.99 24.93H106.9V39.39C106.9 39.52 106.86 39.62 106.78 39.7C106.7 39.78 106.6 39.82 106.47 39.82H105.89C105.76 39.82 105.66 39.78 105.58 39.7C105.5 39.62 105.46 39.52 105.46 39.39V24.93H99.37C99.08 24.93 98.94 24.79 98.94 24.52V24.01Z" fill="black"/>
<path d="M112.88 39.43L119.79 23.91C119.9 23.69 120.08 23.57 120.32 23.57H120.7C120.96 23.57 121.12 23.68 121.21 23.91L128.14 39.43C128.19 39.54 128.19 39.63 128.14 39.71C128.09 39.78 128 39.82 127.88 39.82H127.23C126.94 39.82 126.74 39.69 126.63 39.44L125 35.8H116L114.39 39.43C114.28 39.69 114.08 39.81 113.79 39.81H113.12C112.84 39.82 112.76 39.69 112.88 39.43ZM120.5 25.72L116.6 34.45H124.4L120.5 25.72Z" fill="black"/>
<path d="M23.79 32.44C30.1523 32.44 35.31 27.2823 35.31 20.92C35.31 14.5577 30.1523 9.39999 23.79 9.39999C17.4277 9.39999 12.27 14.5577 12.27 20.92C12.27 27.2823 17.4277 32.44 23.79 32.44Z" fill="#FFE71D"/>
<path d="M23.79 15.69L29.52 23.12H18.06L23.79 15.69Z" fill="black" stroke="black" stroke-width="2.1227" stroke-miterlimit="10"/>
<path d="M23.79 0.910004V17.42" stroke="black" stroke-width="1.4152" stroke-miterlimit="10" stroke-linecap="round" stroke-linejoin="round"/>
<path d="M1.2 39L9.46 29.06V1.39" stroke="black" stroke-width="1.4152" stroke-miterlimit="10"/>
<path d="M9.45999 29.06H39.18" stroke="black" stroke-width="1.4152" stroke-miterlimit="10"/>
</svg>
