<?xml version="1.0" ?><svg id="Outline" viewBox="0 0 512 512" xmlns="http://www.w3.org/2000/svg"><defs><style>.cls-1{fill:#dd1a1e;}</style></defs><path class="cls-1" d="M409.42,403.06,285,278.63a124.32,124.32,0,1,0-16.14,15.92L393.39,419.09a11.33,11.33,0,0,0,16-16ZM117.85,270.33a101.82,101.82,0,1,1,144,0A101.15,101.15,0,0,1,117.85,270.33Z"/><path class="cls-1" d="M235.17,150.69l-70.76,74.93-29-30.73a11.34,11.34,0,1,0-16.49,15.57L156.22,250a11.33,11.33,0,0,0,16,.46,11.48,11.48,0,0,0,1.27-1.44s0,0,0-.05l78.08-82.68a11.34,11.34,0,1,0-16.48-15.57Z"/></svg>
