<svg id="icon" xmlns="http://www.w3.org/2000/svg" viewBox="0 0 512 512"><title>bill</title><path d="M299.12,21.24H131.64A23.63,23.63,0,0,0,108,44.84V438.92a51.9,51.9,0,0,0,51.84,51.84H354.13a4.78,4.78,0,0,0,.76-.08,5,5,0,0,0,.77.08A48.36,48.36,0,0,0,404,442.45V389.5a20.63,20.63,0,0,0-20.61-20.61h-40.9a5.74,5.74,0,1,0,0,11.47h40.9a9.15,9.15,0,0,1,9.14,9.14v52.95a36.89,36.89,0,0,1-36.84,36.84,5,5,0,0,0-.77.08,4.78,4.78,0,0,0-.76-.08c-12.25,0-21.37-6.88-27.1-20.44a56.29,56.29,0,0,1-4.31-22.07V44.84A23.63,23.63,0,0,0,299.12,21.24Zm27.51,458.05H159.87a40.42,40.42,0,0,1-40.37-40.37V44.84a12.15,12.15,0,0,1,12.14-12.13H299.12a12.14,12.14,0,0,1,12.13,12.13V436.78a67.73,67.73,0,0,0,5.21,26.54A52.27,52.27,0,0,0,326.63,479.29Z"/><path d="M218.63,119.88h-8.85a9.58,9.58,0,0,1,0-19.16H227a5.74,5.74,0,1,0,0-11.47h-7v-6a5.74,5.74,0,1,0-11.47,0v6.06a21,21,0,0,0,1.31,42h8.85a9.58,9.58,0,1,1,0,19.16H201.46a5.74,5.74,0,0,0,0,11.47h7v6a5.74,5.74,0,1,0,11.47,0v-6.06a21,21,0,0,0-1.31-42Z"/><path d="M216.38,219.65H155.47a5.74,5.74,0,1,0,0,11.47h60.91a5.74,5.74,0,0,0,0-11.47Z"/><path d="M270.22,219.65H257.86a5.74,5.74,0,0,0,0,11.47h12.36a5.74,5.74,0,1,0,0-11.47Z"/><path d="M216.38,275.88H155.47a5.74,5.74,0,1,0,0,11.47h60.91a5.74,5.74,0,0,0,0-11.47Z"/><path d="M270.22,275.88H257.86a5.74,5.74,0,0,0,0,11.47h12.36a5.74,5.74,0,1,0,0-11.47Z"/><path d="M216.38,332.12H155.47a5.74,5.74,0,1,0,0,11.47h60.91a5.74,5.74,0,0,0,0-11.47Z"/><path d="M270.22,332.12H257.86a5.74,5.74,0,0,0,0,11.47h12.36a5.74,5.74,0,1,0,0-11.47Z"/><path d="M216.38,388.35H155.47a5.74,5.74,0,1,0,0,11.47h60.91a5.74,5.74,0,0,0,0-11.47Z"/><path d="M270.22,388.35H257.86a5.74,5.74,0,0,0,0,11.47h12.36a5.74,5.74,0,1,0,0-11.47Z"/></svg>