<svg id="icon" xmlns="http://www.w3.org/2000/svg" viewBox="0 0 512 512"><title>credit card machine</title><path d="M323.3,216.29h-5.66a5.74,5.74,0,0,0-.08,11.47V477.89H300.3a9.32,9.32,0,0,1-9.31-9.3V390.48a5.74,5.74,0,1,0-11.47,0v78.11a20.79,20.79,0,0,0,20.78,20.77H440.86a20.79,20.79,0,0,0,20.77-20.77V237.06a20.8,20.8,0,0,0-20.77-20.77ZM329,227.76h26.38V477.89H329Zm121.13,9.3V468.59a9.31,9.31,0,0,1-9.3,9.3h-74V227.76h74A9.31,9.31,0,0,1,450.16,237.06Z"/><path d="M389.34,430.73a5.74,5.74,0,0,0,5.74-5.73V367.53a5.74,5.74,0,0,0-11.47,0V425A5.74,5.74,0,0,0,389.34,430.73Z"/><path d="M386.17,346.24a6.12,6.12,0,0,0,1,.53,6.86,6.86,0,0,0,1.07.31,5.33,5.33,0,0,0,2.25,0,7.19,7.19,0,0,0,1.07-.31,6.69,6.69,0,0,0,1-.53,6.56,6.56,0,0,0,.86-.72,5.71,5.71,0,0,0,1.69-4.06,6.16,6.16,0,0,0-.11-1.12,5.84,5.84,0,0,0-.86-2.06,6.35,6.35,0,0,0-1.58-1.58,5.87,5.87,0,0,0-1-.53,6.26,6.26,0,0,0-1.07-.33,6.08,6.08,0,0,0-2.25,0,6,6,0,0,0-1.07.33,5.42,5.42,0,0,0-1,.53,4.69,4.69,0,0,0-.88.72,5.47,5.47,0,0,0-.72.86,7.23,7.23,0,0,0-.53,1,7.39,7.39,0,0,0-.33,1.07,6.14,6.14,0,0,0-.1,1.12,5.76,5.76,0,0,0,1.68,4.06A5.63,5.63,0,0,0,386.17,346.24Z"/><path d="M384,318.48a6.33,6.33,0,0,0,.53,1,6.56,6.56,0,0,0,.72.86,5.7,5.7,0,0,0,4.06,1.68,6.14,6.14,0,0,0,1.12-.1,6.26,6.26,0,0,0,1.07-.33,5.23,5.23,0,0,0,1-.53,4.22,4.22,0,0,0,.86-.72,5.3,5.3,0,0,0,.72-.86,5,5,0,0,0,.53-1,5.66,5.66,0,0,0,.33-1.06,5.81,5.81,0,0,0,0-2.25,5.66,5.66,0,0,0-.33-1.06,5.4,5.4,0,0,0-.53-1,5.3,5.3,0,0,0-.72-.86,4.92,4.92,0,0,0-.86-.71,5.87,5.87,0,0,0-1-.53,6.26,6.26,0,0,0-1.07-.33,5.68,5.68,0,0,0-2.25,0,6,6,0,0,0-1.07.33,5.42,5.42,0,0,0-1,.53,5.07,5.07,0,0,0-.88.71,6.56,6.56,0,0,0-.72.86,6.91,6.91,0,0,0-.53,1,7.66,7.66,0,0,0-.33,1.06,6.38,6.38,0,0,0,0,2.25A7.66,7.66,0,0,0,384,318.48Z"/><path d="M384,293.26a7.86,7.86,0,0,0,.53,1,6.65,6.65,0,0,0,.72.87,5.07,5.07,0,0,0,.88.71,5.42,5.42,0,0,0,1,.53,5.85,5.85,0,0,0,1.08.33,6,6,0,0,0,1.12.11,5.78,5.78,0,0,0,4-1.68,5.37,5.37,0,0,0,.72-.87,5.92,5.92,0,0,0,.53-1,5.85,5.85,0,0,0,.33-1.08,5.71,5.71,0,0,0,0-2.23,5.85,5.85,0,0,0-.33-1.08,5.92,5.92,0,0,0-.53-1,5.37,5.37,0,0,0-.72-.87,6.07,6.07,0,0,0-.86-.72,5.78,5.78,0,0,0-1-.51,5.48,5.48,0,0,0-1.07-.33,5.33,5.33,0,0,0-2.25,0,5.28,5.28,0,0,0-1.07.33,6.27,6.27,0,0,0-1,.51,7.45,7.45,0,0,0-.86.72,5.37,5.37,0,0,0-.72.87,7.86,7.86,0,0,0-.53,1,6.74,6.74,0,0,0-.33,1.08,6.27,6.27,0,0,0,0,2.23A7.93,7.93,0,0,0,384,293.26Z"/><path d="M75.72,490.76H235a25.39,25.39,0,0,0,25.36-25.36V406.11c0-22.05,13.85-36.72,25.48-45.15a36.76,36.76,0,0,0,15.26-29.6V75.62a34.8,34.8,0,0,0-34.77-34.76h-6.65A25.39,25.39,0,0,0,235,21.24H75.72A25.38,25.38,0,0,0,50.37,46.6V465.4A25.38,25.38,0,0,0,75.72,490.76ZM289.58,75.62V331.36a25.27,25.27,0,0,1-10.53,20.32,81.44,81.44,0,0,0-18.74,18.63v-318h6A23.32,23.32,0,0,1,289.58,75.62ZM61.84,46.6A13.9,13.9,0,0,1,75.72,32.71H235A13.9,13.9,0,0,1,248.84,46.6V465.4A13.9,13.9,0,0,1,235,479.29H75.72A13.9,13.9,0,0,1,61.84,465.4Z"/><path d="M115.18,207.5H195.5a32,32,0,0,0,32-32V74.4a5.74,5.74,0,0,0-5.73-5.73H88.92a5.74,5.74,0,0,0-5.74,5.73V175.51A32,32,0,0,0,115.18,207.5ZM94.65,80.14H216v95.37A20.54,20.54,0,0,1,195.5,196H115.18a20.55,20.55,0,0,1-20.53-20.52Z"/><path d="M104,270.28h23.75a20.8,20.8,0,1,0,0-41.59H104a20.8,20.8,0,1,0,0,41.59Zm0-30.12h23.75a9.33,9.33,0,1,1,0,18.65H104a9.33,9.33,0,1,1,0-18.65Z"/><path d="M206.7,228.69H182.94a20.8,20.8,0,0,0,0,41.59H206.7a20.8,20.8,0,0,0,0-41.59Zm0,30.12H182.94a9.33,9.33,0,0,1,0-18.65H206.7a9.33,9.33,0,0,1,0,18.65Z"/><path d="M116.81,299.13h-24a5.74,5.74,0,0,0,0,11.47h24a5.74,5.74,0,1,0,0-11.47Z"/><path d="M217.87,299.13h-24a5.74,5.74,0,1,0,0,11.47h24a5.74,5.74,0,1,0,0-11.47Z"/><path d="M167.34,299.13h-24a5.74,5.74,0,0,0,0,11.47h24a5.74,5.74,0,1,0,0-11.47Z"/><path d="M116.81,339.45h-24a5.74,5.74,0,0,0,0,11.47h24a5.74,5.74,0,1,0,0-11.47Z"/><path d="M217.87,339.45h-24a5.74,5.74,0,1,0,0,11.47h24a5.74,5.74,0,1,0,0-11.47Z"/><path d="M167.34,339.45h-24a5.74,5.74,0,0,0,0,11.47h24a5.74,5.74,0,1,0,0-11.47Z"/><path d="M116.81,379.78h-24a5.74,5.74,0,0,0,0,11.47h24a5.74,5.74,0,1,0,0-11.47Z"/><path d="M217.87,379.78h-24a5.74,5.74,0,1,0,0,11.47h24a5.74,5.74,0,1,0,0-11.47Z"/><path d="M167.34,379.78h-24a5.74,5.74,0,0,0,0,11.47h24a5.74,5.74,0,1,0,0-11.47Z"/><path d="M110.1,428.18a4.94,4.94,0,0,0-.53-1,5.52,5.52,0,0,0-.7-.88,7.67,7.67,0,0,0-.88-.72,6.69,6.69,0,0,0-1-.53,5.49,5.49,0,0,0-1.07-.31,5.73,5.73,0,0,0-6.86,5.62,5.86,5.86,0,0,0,1.68,4.06,6,6,0,0,0,.88.7,5.23,5.23,0,0,0,1,.53,5.53,5.53,0,0,0,1.07.33,6.07,6.07,0,0,0,1.12.11,6.16,6.16,0,0,0,1.12-.11,5.53,5.53,0,0,0,1.07-.33,5.23,5.23,0,0,0,1-.53,6.59,6.59,0,0,0,.88-.7,5.85,5.85,0,0,0,1.67-4.06,6.18,6.18,0,0,0-.11-1.13A5.66,5.66,0,0,0,110.1,428.18Z"/><path d="M160.64,428.18a5.51,5.51,0,0,0-.53-1,5.63,5.63,0,0,0-.72-.88,5.73,5.73,0,0,0-8.11,0,5.07,5.07,0,0,0-.71.88,5.51,5.51,0,0,0-.53,1,6.51,6.51,0,0,0-.33,1.06,6.18,6.18,0,0,0-.11,1.13,5.81,5.81,0,0,0,1.68,4.06,6.5,6.5,0,0,0,.87.7,5.92,5.92,0,0,0,1,.53,5.85,5.85,0,0,0,1.08.33,5.71,5.71,0,0,0,2.23,0,5.85,5.85,0,0,0,1.08-.33,5.23,5.23,0,0,0,1-.53,5.93,5.93,0,0,0,.87-.7,7.67,7.67,0,0,0,.72-.88,5.87,5.87,0,0,0,.53-1,6.16,6.16,0,0,0,.31-1.07,5.33,5.33,0,0,0,0-2.25A5.6,5.6,0,0,0,160.64,428.18Z"/><path d="M209.06,425.59a6.91,6.91,0,0,0-1-.53,5.6,5.6,0,0,0-1.06-.31,5.33,5.33,0,0,0-2.25,0,5.6,5.6,0,0,0-1.06.31,6.33,6.33,0,0,0-1,.53,6.07,6.07,0,0,0-.86.72,4.33,4.33,0,0,0-.72.88,5.51,5.51,0,0,0-.53,1,5,5,0,0,0-.33,1.06,6.17,6.17,0,0,0-.1,1.13,5.77,5.77,0,0,0,1.68,4.06,5,5,0,0,0,.87.7,4.68,4.68,0,0,0,1,.53,5.66,5.66,0,0,0,1.06.33,6.18,6.18,0,0,0,1.13.11A6,6,0,0,0,207,436a5.66,5.66,0,0,0,1.06-.33,5.4,5.4,0,0,0,1-.53,6.41,6.41,0,0,0,.86-.7,5.37,5.37,0,0,0,.71-.88,4.72,4.72,0,0,0,.53-1,5.48,5.48,0,0,0,.33-1.07,6.18,6.18,0,0,0,.12-1.12,5.75,5.75,0,0,0-1.69-4.06A7.45,7.45,0,0,0,209.06,425.59Z"/></svg>