<svg xmlns="http://www.w3.org/2000/svg" width="162.674" height="160.255" viewBox="0 0 162.674 160.255">
  <g id="home_plan" transform="translate(-2.658 51.437) rotate(-25)">
    <path id="Контур_14" data-name="Контур 14" d="M19,121H126V17H21V2H19A16.986,16.986,0,0,0,2,19H2v85H2A16.986,16.986,0,0,0,19,121ZM6,19A12.933,12.933,0,0,1,17,6.2V87.1A16.912,16.912,0,0,0,6,93V19Zm0,85A12.974,12.974,0,0,1,19,91h2V21H122v96H19A12.974,12.974,0,0,1,6,104Z"/>
    <path id="Контур_15" data-name="Контур 15" d="M112,51H78V49H74v6h34v48H78V67H74v36H35V55H58V48H54v3H35V35H74v2h4V31H31v76h81Z"/>
  </g>
</svg>
