<svg id="Слой_1" data-name="Слой 1" xmlns="http://www.w3.org/2000/svg" width="100%" height="100%" viewBox="0 0 26.73 20.44"><defs><style>.cls-1{fill:#0099df}</style></defs><path class="cls-1" d="M26.48 13.44v-.31h-.09l-.09.21-.1-.21h-.09v.31h.06v-.24l.09.21h.07l.09-.21v.24zm-.53 0v-.26h.1-.27.11v.26z" transform="translate(0 -.29)"/><path d="M17 14.8H9.75V2H17z" transform="translate(0 -.29)" fill="#6c6bbd"/><path d="M10.21 8.41A8.06 8.06 0 0113.37 2 8.32 8.32 0 008.26.29 8.2 8.2 0 000 8.41a8.2 8.2 0 008.26 8.13 8.32 8.32 0 005.11-1.74 8.07 8.07 0 01-3.16-6.39z" transform="translate(0 -.29)" fill="#eb001b"/><path class="cls-1" d="M26.73 8.41a8.2 8.2 0 01-8.26 8.13 8.32 8.32 0 01-5.11-1.74 8 8 0 000-12.8A8.32 8.32 0 0118.47.29a8.2 8.2 0 018.26 8.12z" transform="translate(0 -.29)"/><path d="M19.42 18.4a1.11 1.11 0 01.34.06l-.15.45a.65.65 0 00-.3-.06c-.31 0-.47.2-.47.56v1.2h-.48v-2.15h.48v.26a.64.64 0 01.58-.32zm-1.77.49h-.78v1c0 .22.08.36.32.36a.9.9 0 00.42-.12l.14.4a1.08 1.08 0 01-.6.17c-.56 0-.76-.3-.76-.8v-1h-.45v-.43h.45v-.65h.48v.65h.78zm-6.11.46a.57.57 0 01.59-.53.54.54 0 01.55.53zm1.64.19a1 1 0 00-1-1.14 1.14 1.14 0 000 2.27 1.36 1.36 0 00.9-.3l-.25-.37a1.05 1.05 0 01-.64.22.61.61 0 01-.65-.52h1.63c0-.04.01-.1.01-.16zm2.09-.54a1.41 1.41 0 00-.68-.19c-.26 0-.42.1-.42.26s.17.18.37.21h.23c.48.07.77.27.77.65s-.37.7-1 .7a1.59 1.59 0 01-.95-.28l.22-.37a1.13 1.13 0 00.73.23c.33 0 .5-.1.5-.26s-.12-.19-.39-.23h-.22c-.49-.07-.76-.28-.76-.63s.36-.7.92-.7a1.63 1.63 0 01.89.23zm5.89-.16a.76.76 0 00-.27 0 .55.55 0 00-.22.14.86.86 0 00-.15.22.87.87 0 00-.05.28.88.88 0 00.05.29 1.07 1.07 0 00.15.22.69.69 0 00.22.14.75.75 0 00.54 0 .69.69 0 00.22-.14.78.78 0 00.15-.22.68.68 0 00.05-.29.66.66 0 00-.2-.5.55.55 0 00-.22-.14.76.76 0 00-.27.01zm0-.45a1.19 1.19 0 01.47.09 1.23 1.23 0 01.38.24 1 1 0 01.25.36 1.13 1.13 0 01.09.45 1.14 1.14 0 01-.09.46 1.11 1.11 0 01-.25.36 1.23 1.23 0 01-.38.24 1.42 1.42 0 01-.94 0 1.23 1.23 0 01-.38-.24 1.26 1.26 0 01-.24-.36 1.14 1.14 0 01-.09-.46 1.15 1.15 0 01.33-.81 1.23 1.23 0 01.38-.24 1.19 1.19 0 01.47-.08zM8.75 19.54a.66.66 0 01.67-.69.69.69 0 010 1.38.66.66 0 01-.67-.69zm1.78 0v-1.08h-.48v.26a.85.85 0 00-.69-.32 1.14 1.14 0 000 2.27.82.82 0 00.69-.32v.26h.48zm-2.69 1.07v-1.35A.81.81 0 007 18.4a.87.87 0 00-.77.39.81.81 0 00-.73-.39.74.74 0 00-.64.32v-.26h-.5v2.15h.48v-1.19a.51.51 0 01.54-.57c.32 0 .48.2.48.57v1.19h.48v-1.19a.51.51 0 01.54-.57c.32 0 .48.2.48.57v1.19zm15.02-.16v.06h.08-.08zm.05 0H23v.05c0 .05 0 0 0 0h-.05l.06.07-.06-.07v.07-.19zm0 .26h.15a.09.09 0 000-.05.14.14 0 000-.06.14.14 0 000-.07.09.09 0 000-.05h-.19a.29.29 0 00-.09.09.15.15 0 000 .07.13.13 0 000 .06.29.29 0 00.09.09zm0-.38h.16a.25.25 0 010 .07.29.29 0 010 .09.24.24 0 010 .08.25.25 0 010 .07h-.32v-.07a.22.22 0 010-.08.28.28 0 010-.09v-.07h.07z" transform="translate(0 -.29)" fill="#231f20"/></svg>