<svg viewBox="0 0 44 34" fill="none" xmlns="http://www.w3.org/2000/svg"><path d="M8.371 33.463V31.27a1.293 1.293 0 00-.375-1.004 1.31 1.31 0 00-1.008-.384 1.37 1.37 0 00-1.236.621 1.288 1.288 0 00-1.162-.621 1.169 1.169 0 00-1.03.519v-.431h-.765v3.493h.772v-1.922a.813.813 0 01.506-.87.83.83 0 01.355-.058c.508 0 .765.329.765.92v1.945h.773V31.54a.817.817 0 01.507-.868.832.832 0 01.354-.06c.522 0 .772.329.772.92v1.945l.772-.015zm11.43-3.493h-1.258v-1.06h-.773v1.06h-.699v.694h.714v1.608c0 .811.316 1.293 1.221 1.293a1.8 1.8 0 00.956-.27l-.22-.65a1.42 1.42 0 01-.677.197c-.368 0-.508-.234-.508-.585v-1.593h1.25l-.006-.694zm6.525-.088a1.043 1.043 0 00-.927.511v-.423h-.758v3.493h.766v-1.959c0-.577.25-.899.735-.899.164-.002.326.028.478.088l.236-.73a1.647 1.647 0 00-.545-.096l.015.015zm-9.866.365a2.644 2.644 0 00-1.434-.365c-.89 0-1.471.424-1.471 1.118 0 .57.426.92 1.213 1.03l.368.052c.42.058.618.168.618.365 0 .27-.28.424-.802.424a1.88 1.88 0 01-1.17-.365l-.367.592c.445.309.98.468 1.523.453 1.015 0 1.603-.475 1.603-1.14 0-.666-.463-.936-1.228-1.046l-.368-.05c-.331-.045-.596-.11-.596-.344 0-.234.25-.41.67-.41.387.005.767.108 1.103.3l.338-.614zm20.493-.365a1.043 1.043 0 00-.927.511v-.423h-.758v3.493h.766v-1.959c0-.577.25-.899.735-.899.164-.002.326.028.479.088l.235-.73a1.647 1.647 0 00-.544-.096l.014.015zm-9.858 1.827a1.754 1.754 0 00.532 1.325 1.78 1.78 0 001.344.502c.46.023.91-.125 1.265-.416l-.367-.614c-.265.2-.587.31-.92.314a1.133 1.133 0 01-.74-.358 1.118 1.118 0 010-1.52c.193-.208.457-.336.74-.358.332.003.655.113.92.314l.367-.614a1.847 1.847 0 00-1.265-.417 1.785 1.785 0 00-1.344.502 1.763 1.763 0 00-.532 1.325v.015zm7.166 0v-1.74h-.766v.424a1.334 1.334 0 00-1.103-.511 1.84 1.84 0 00-1.3.535 1.82 1.82 0 000 2.584 1.84 1.84 0 001.3.535 1.343 1.343 0 001.103-.511v.423h.766V31.71zm-2.848 0a1.052 1.052 0 01.697-.93 1.07 1.07 0 011.136.266 1.055 1.055 0 01.206 1.14 1.058 1.058 0 01-.972.642 1.063 1.063 0 01-.78-.327 1.047 1.047 0 01-.287-.791zm-9.233-1.827a1.846 1.846 0 00-1.293.553 1.821 1.821 0 00.037 2.584c.35.338.82.524 1.308.517.53.027 1.05-.142 1.46-.475l-.367-.563c-.291.232-.65.36-1.023.366a.979.979 0 01-.7-.216.967.967 0 01-.352-.64h2.611v-.292c0-1.096-.684-1.827-1.67-1.827l-.01-.007zm0 .68a.877.877 0 01.817.517.86.86 0 01.074.33h-1.84a.897.897 0 01.294-.613.909.909 0 01.64-.234h.015zm19.169 1.154v-3.15h-.736v1.828a1.333 1.333 0 00-1.103-.512 1.84 1.84 0 00-1.3.535 1.82 1.82 0 000 2.584 1.84 1.84 0 001.3.535 1.343 1.343 0 001.103-.511v.423h.736v-1.732zm1.276 1.24a.37.37 0 01.254.098.338.338 0 01-.114.563.348.348 0 01-.14.029.37.37 0 01-.33-.212.342.342 0 01.077-.38.371.371 0 01.264-.099h-.01zm0 .617a.263.263 0 00.192-.08.27.27 0 000-.366.268.268 0 00-.298-.059.27.27 0 00-.088.059.27.27 0 000 .365.271.271 0 00.088.059.273.273 0 00.117.022h-.01zm.023-.435a.148.148 0 01.095.029.091.091 0 01.033.077.086.086 0 01-.026.066.129.129 0 01-.077.032l.107.121h-.085l-.099-.12h-.033v.12h-.07v-.322l.154-.003zm-.081.062v.088h.08c.015.004.03.004.045 0a.036.036 0 000-.033.036.036 0 000-.033.079.079 0 00-.044 0l-.081-.022zm-4.047-1.484a1.052 1.052 0 01.697-.93 1.069 1.069 0 011.136.266 1.054 1.054 0 01-.766 1.782 1.063 1.063 0 01-.78-.327 1.049 1.049 0 01-.287-.79zm-25.834 0V29.97h-.765v.424a1.333 1.333 0 00-1.103-.512 1.84 1.84 0 00-1.3.535 1.82 1.82 0 000 2.584 1.84 1.84 0 001.3.535 1.343 1.343 0 001.103-.511v.423h.765v-1.732zm-2.847 0a1.052 1.052 0 01.697-.93 1.069 1.069 0 011.136.266 1.053 1.053 0 01-.766 1.782 1.062 1.062 0 01-.785-.324 1.049 1.049 0 01-.29-.794h.008z" fill="#231F20"/><path d="M27.794 3.35H16.206v20.686h11.588V3.35z" fill="#FF5F00"/><path d="M16.942 13.696a13.06 13.06 0 011.328-5.752A13.15 13.15 0 0122 3.351 13.32 13.32 0 008.03 1.862a13.213 13.213 0 00-5.438 4.853 13.09 13.09 0 00-2.017 6.98c0 2.467.699 4.886 2.017 6.978a13.212 13.212 0 005.437 4.853A13.319 13.319 0 0022 24.037a13.15 13.15 0 01-3.728-4.591 13.061 13.061 0 01-1.329-5.75z" fill="#EB001B"/><path d="M43.427 13.695c0 2.469-.7 4.888-2.018 6.98a13.213 13.213 0 01-5.438 4.853A13.32 13.32 0 0122 24.037a13.171 13.171 0 003.728-4.593 13.083 13.083 0 000-11.5A13.172 13.172 0 0022 3.35a13.32 13.32 0 0113.971-1.49 13.213 13.213 0 015.439 4.85 13.092 13.092 0 012.018 6.98v.003zm-1.266 8.149v-.424h.173v-.088h-.438v.088h.188v.424h.077zm.85 0v-.512h-.132l-.155.366-.154-.366h-.118v.512h.096v-.384l.143.332h.1l.143-.332v.387l.077-.003z" fill="#F79E1B"/></svg>