<svg version="1.1" id="Слой_1" xmlns="http://www.w3.org/2000/svg" x="0" y="0" width="100%" height="100%" viewBox="0 0 1776 503.2" xml:space="preserve"><path d="M478.6 0v.2c-.2 0-69.4-.2-87.8 65.9-16.9 60.6-64.5 228.1-65.9 232.7h-13.2S263 127.6 245.8 65.9C227.4-.2 158.1 0 158.1 0H0v503.2h158.1V204.4h13.2l92.2 298.8h109.8l92.2-298.6h13.2v298.6h158.1V0H478.6zm577.3 0s-46.3 4.2-68.1 52.7l-112 246.1h-13.2V0H704.7v503.2H854s48.5-4.4 70.2-52.7L1034 204.4h13.2v298.8h158.1V0h-149.4zm219.6 228.5v274.7h158.1V342.8h171.2c74.6 0 137.9-47.7 161.4-114.3h-490.7z" fill-rule="evenodd" clip-rule="evenodd" fill="#4db45e"/><linearGradient id="SVGID_1_" gradientUnits="userSpaceOnUse" x1="42.341" y1="503.111" x2="60" y2="503.111" gradientTransform="matrix(29.6 0 0 -29.6 0 14995.36)"><stop offset=".3" stop-color="#00b4e6"/><stop offset="1" stop-color="#088ccb"/></linearGradient><path d="M1604.8 0h-351.5c17.6 95.8 89.3 172.7 182.2 197.8 21.1 5.7 43.2 8.8 66.1 8.8h270.9c2.4-11.4 3.5-23.1 3.5-35.2C1776 76.7 1699.4 0 1604.8 0z" fill-rule="evenodd" clip-rule="evenodd" fill="url(#SVGID_1_)"/></svg>