<svg viewBox="0 0 49 17" fill="none" xmlns="http://www.w3.org/2000/svg"><path d="M32.005.18c-3.898 0-6.635 2.188-6.66 5.317-.024 2.318 1.958 3.61 3.45 4.38 1.538.788 2.051 1.294 2.046 1.999-.015 1.08-1.23 1.572-2.36 1.572-1.575 0-2.415-.243-3.705-.843l-.512-.257-.55 3.607c.92.449 2.622.837 4.39.858 4.136 0 6.827-2.163 6.86-5.503.016-1.839-1.037-3.23-3.312-4.379-1.373-.747-2.223-1.242-2.21-1.999.001-.669.713-1.385 2.258-1.385a6.576 6.576 0 012.948.619l.351.185.536-3.493a9.282 9.282 0 00-3.53-.678zM19.77.46l-2.465 16.114h3.939L23.71.461h-3.94zM14 .477l-3.856 10.982-.411-2.231c-.96-2.736-3.04-5.607-5.46-6.77L7.8 16.559l4.17-.002L18.172.477H14zm28.596.001c-.944 0-1.65.284-2.067 1.338L34.68 16.58h4.137s.677-1.988.83-2.423c.451 0 4.47.01 5.043.01.122.561.48 2.412.48 2.412h3.659L45.64.477h-3.044zm.278 4.345l.263 1.389.915 4.65h-3.27c.327-.925 1.569-4.504 1.569-4.504-.024.043.323-.932.523-1.535z" fill="#004AA0"/><path d="M6.568.467H.214L.177.744c4.94 1.334 8.2 4.611 9.556 8.486l-1.38-7.406C8.114.806 7.422.503 6.567.467" fill="#FFAB00"/></svg>